<?xml version="1.0" encoding="UTF-8" standalone="no"?><svg xmlns="http://www.w3.org/2000/svg" xmlns:xlink="http://www.w3.org/1999/xlink" contentStyleType="text/css" height="134px" preserveAspectRatio="none" style="width:443px;height:134px;background:#FFFFFF;" version="1.1" viewBox="0 0 443 134" width="443px" zoomAndPan="magnify"><defs/><g><rect fill="#F1F1F1" height="36.4883" rx="12.5" ry="12.5" style="stroke:#181818;stroke-width:1.5;" width="94" x="10" y="48.2441"/><text fill="#000000" font-family="sans-serif" font-size="14" lengthAdjust="spacing" textLength="74" x="20" y="71.7793">on push to</text><rect fill="#F1F1F1" height="36.4883" rx="12.5" ry="12.5" style="stroke:#181818;stroke-width:1.5;" width="103" x="154" y="20"/><text fill="#000000" font-family="sans-serif" font-size="14" lengthAdjust="spacing" textLength="83" x="164" y="43.5352">all branches</text><text fill="#000000" font-family="sans-serif" font-size="14" lengthAdjust="spacing" textLength="68" x="310" y="43.5352">tests.yaml</text><path d="M257,38.2441 L267,38.2441 C282,38.2441 282,38.2441 297,38.2441 L307,38.2441 " fill="none" style="stroke:#181818;stroke-width:1.0;"/><path d="M104,66.4883 L114,66.4883 C129,66.4883 129,38.2441 144,38.2441 L154,38.2441 " fill="none" style="stroke:#181818;stroke-width:1.0;"/><rect fill="#F1F1F1" height="36.4883" rx="12.5" ry="12.5" style="stroke:#181818;stroke-width:1.5;" width="87" x="154" y="76.4883"/><text fill="#000000" font-family="sans-serif" font-size="14" lengthAdjust="spacing" textLength="67" x="164" y="100.0234">only main</text><text fill="#000000" font-family="sans-serif" font-size="14" lengthAdjust="spacing" textLength="85" x="294" y="90.7793">release.yaml</text><path d="M241,94.7324 L251,94.7324 C266,94.7324 266,85.4883 281,85.4883 L291,85.4883 " fill="none" style="stroke:#181818;stroke-width:1.0;"/><text fill="#000000" font-family="sans-serif" font-size="14" lengthAdjust="spacing" textLength="137" x="294" y="109.2676">generate-docs.yaml</text><path d="M241,94.7324 L251,94.7324 C266,94.7324 266,103.9766 281,103.9766 L291,103.9766 " fill="none" style="stroke:#181818;stroke-width:1.0;"/><path d="M104,66.4883 L114,66.4883 C129,66.4883 129,94.7324 144,94.7324 L154,94.7324 " fill="none" style="stroke:#181818;stroke-width:1.0;"/><!--MD5=[e1ddff9a1c33f3f3e9b23b3f1510f9f1]
@startmindmap
* on push to
** all branches
***_ tests.yaml
** only main
***_ release.yaml
***_ generate-docs.yaml
@endmindmap

PlantUML version 1.2022.5(Sat Apr 30 12:55:52 CEST 2022)
(GPL source distribution)
Java Runtime: OpenJDK Runtime Environment
JVM: OpenJDK 64-Bit Server VM
Default Encoding: UTF-8
Language: nb
Country: NO
--></g></svg>
